:SAMPLES-PER-SECOND 30
:FULLY-SPECIFIED
:DEGREES
38
root  22.4693 39.3943 5.14002 10.3525 -76.0412 -11.6767
RightUpLeg  7.05264 -39.4509 -9.85103
RightLeg  37.3807 23.345 17.834
RightFoot  -6.67175 -0.973005 22.4247
RightToes  3.49245e-010 0 -3.6325e-017
Spine  -20.8676 -12.0611 -17.1988
Spine1  31.7337 -15.8777 11.6056
HEad  -11.9906 -6.81301 -4.37554
LeftShoulder1  0.108023 2.81382 -8.10336
LeftArm  -22.0427 6.71593 -21.3901
LeftForeArm  -2.5109 0.199031 3.20796
LeftHand  -0.0335267 5.94823 1.76303
RightShoulder  0.140296 -2.55007 7.34489
RightArm  -12.9237 0.758223 14.1293
RightForeArm  7.93462 -2.02192 -4.81061
RightHand  0.524307 1.93471 8.14148
LeftUpLeg  -9.44926 11.8004 1.36106
LeftLeg  17.0936 -14.5289 -6.43264
LeftFoot  -5.54165 -0.502792 10.5541
LeftToes  -5.36635e-011 -6.70219e-011 5.24975e-011
39
root  22.3227 39.5315 5.25742 13.066 -76.1808 -16.4542
RightUpLeg  9.26194 -37.5473 -12.2656
RightLeg  34.3894 16.4121 11.5515
RightFoot  -6.71544 -0.752362 17.3275
RightToes  3.49245e-010 0 -3.6325e-017
Spine  -17.6767 -10.8928 -12.7512
Spine1  29.6439 -14.4011 8.60598
HEad  -11.3361 -7.30995 -4.61627
LeftShoulder1  0.122176 2.69886 -7.58447
LeftArm  -21.9581 6.20784 -20.8698
LeftForeArm  -2.04776 0.0953366 3.0845
LeftHand  -0.0283966 5.90078 1.68554
RightShoulder  0.132941 -2.57011 6.81735
RightArm  -13.1193 0.822598 12.8085
RightForeArm  7.76347 -1.7539 -4.85734
RightHand  0.501878 1.79969 7.94981
LeftUpLeg  -6.43679 10.9589 2.78648
LeftLeg  15.9238 -13.7346 -5.61481
LeftFoot  -5.6419 -0.480522 10.3088
LeftToes  -5.36635e-011 -6.70219e-011 5.24975e-011
40
root  22.3531 39.6081 5.39041 14.0728 -77.7025 -19.0548
RightUpLeg  10.173 -33.9607 -14.1177
RightLeg  30.1213 9.71261 5.84198
RightFoot  -6.87774 -0.54543 12.7526
RightToes  3.49245e-010 0 -3.6325e-017
Spine  -13.4105 -9.42042 -8.84195
Spine1  25.7605 -12.402 5.99926
HEad  -10.881 -7.53956 -4.86896
LeftShoulder1  0.142951 2.53425 -7.09079
LeftArm  -22.282 5.85925 -20.5372
LeftForeArm  -1.10487 -0.119819 3.20166
LeftHand  -0.020468 5.78475 1.8355
RightShoulder  0.153817 -2.35133 5.71554
RightArm  -13.3491 0.692711 11.9942
RightForeArm  6.84043 -1.62318 -4.9246
RightHand  0.476447 1.60675 7.76117
LeftUpLeg  -3.97181 9.9976 2.96653
LeftLeg  14.5637 -11.4964 -4.49742
LeftFoot  -5.48921 -0.47559 9.92617
LeftToes  -5.36635e-011 -6.70219e-011 5.24975e-011
41
root  22.4039 39.6425 5.40316 13.1866 -79.4735 -19.2384
RightUpLeg  10.8862 -29.6016 -15.2093
RightLeg  23.5993 3.96266 1.65254
RightFoot  -6.61271 -0.443193 9.65504
RightToes  3.49245e-010 0 -3.6325e-017
Spine  -9.36065 -8.17097 -6.59607
Spine1  21.825 -10.6046 4.30112
HEad  -10.6296 -7.88307 -4.83259
LeftShoulder1  0.164222 2.37462 -6.86057
LeftArm  -22.146 5.28927 -19.5676
LeftForeArm  -1.29768 -0.534447 2.96155
LeftHand  -0.0176116 5.97545 2.44786
RightShoulder  0.177425 -2.11734 5.02338
RightArm  -13.7465 0.592581 10.9698
RightForeArm  6.19932 -1.38126 -5.06291
RightHand  0.433749 1.12762 7.62897
LeftUpLeg  -2.16362 9.53864 2.60825
LeftLeg  13.4266 -9.37063 -3.75579
LeftFoot  -5.21382 -0.490947 9.7357
LeftToes  -5.36635e-011 -6.70219e-011 5.24975e-011
42
root  22.4837 39.6013 5.26381 8.6956 -81.8315 -15.2384
RightUpLeg  10.7833 -21.7972 -15.0173
RightLeg  15.4138 -2.28772 -0.568177
RightFoot  -5.78153 -0.396716 7.38815
RightToes  3.49245e-010 0 -3.6325e-017
Spine  -5.79592 -6.83153 -6.55703
Spine1  18.1651 -8.94355 3.91974
HEad  -10.9262 -8.11949 -4.3946
LeftShoulder1  0.154229 2.40058 -6.2456
LeftArm  -22.626 4.47886 -19.1329
LeftForeArm  -0.798022 -0.836252 3.0893
LeftHand  -0.0208928 5.70435 2.59216
RightShoulder  0.167497 -2.12092 4.35399
RightArm  -14.1498 0.460677 10.2262
RightForeArm  5.58158 -0.615321 -5.07114
RightHand  0.477378 1.74343 7.61965
LeftUpLeg  -1.04213 9.15825 1.66491
LeftLeg  12.415 -6.72568 -3.27014
LeftFoot  -5.0203 -0.485901 9.3278
LeftToes  -5.36635e-011 -6.70219e-011 5.24975e-011
43
root  22.5106 39.547 5.02321 -0.0781097 -83.4361 -6.77505
RightUpLeg  11.6135 -12.2747 -14.3431
RightLeg  5.4764 -7.673 -0.836248
RightFoot  -4.21613 -0.503187 7.37732
RightToes  3.49245e-010 0 -3.6325e-017
Spine  -3.10376 -5.80748 -7.44233
Spine1  15.2871 -7.72435 3.95793
HEad  -10.9379 -8.59613 -3.97857
LeftShoulder1  0.176329 2.2082 -5.82958
LeftArm  -23.398 3.81234 -18.4817
LeftForeArm  -0.22167 -1.45349 3.35506
LeftHand  -0.0298014 5.19892 2.31222
RightShoulder  0.16123 -2.10047 3.99398
RightArm  -14.7339 0.374973 9.57491
RightForeArm  4.4522 0.264738 -5.10499
RightHand  0.441002 1.5858 7.20164
LeftUpLeg  -0.352213 8.82105 0.760003
LeftLeg  11.8735 -5.0597 -3.08638
LeftFoot  -4.89462 -0.464682 8.75486
LeftToes  -5.36635e-011 -6.70219e-011 5.24975e-011
44
root  22.4078 39.5216 4.71733 -9.43512 -84.0794 2.15344
RightUpLeg  13.4588 -11.0187 -14.7363
RightLeg  -3.54434 -2.93951 -1.53015
RightFoot  -0.463188 -0.907526 9.62859
RightToes  3.49245e-010 0 -3.6325e-017
Spine  -1.48872 -5.1858 -8.37656
Spine1  13.5651 -7.02031 4.18398
HEad  -10.9822 -8.67445 -3.95138
LeftShoulder1  0.199544 1.9979 -5.41929
LeftArm  -24.0263 3.43659 -18.0238
LeftForeArm  0.787463 -2.42433 3.47122
LeftHand  -0.0299214 5.24543 2.49962
RightShoulder  0.162964 -2.09635 3.60541
RightArm  -15.456 0.149829 9.41663
RightForeArm  3.7648 1.37209 -5.16448
RightHand  0.413751 1.77509 6.54968
LeftUpLeg  0.625093 8.85425 0.454799
LeftLeg  11.3419 -4.49567 -3.16339
LeftFoot  -4.84183 -0.438885 8.23268
LeftToes  -5.36635e-011 -6.70219e-011 5.24975e-011
45
root  22.2243 39.5821 4.40662 -10.8556 -84.2605 3.45479
RightUpLeg  13.619 -10.9304 -14.366
RightLeg  -5.7051 0.960463 -1.95229
RightFoot  2.17867 -1.03694 8.88834
RightToes  3.49245e-010 0 -3.6325e-017
Spine  -1.34205 -5.00959 -8.17247
Spine1  13.1201 -6.70095 4.05427
HEad  -10.7783 -8.87424 -3.99591
LeftShoulder1  0.203142 1.95948 -5.31895
LeftArm  -24.0385 3.12966 -17.3887
LeftForeArm  0.707017 -3.40971 3.1946
LeftHand  -0.0282404 5.28874 3.74449
RightShoulder  0.166732 -2.08182 3.82634
RightArm  -15.9245 0.580259 9.1918
RightForeArm  3.51136 2.03009 -5.12732
RightHand  0.456597 2.70623 6.33157
LeftUpLeg  1.46374 9.14074 1.07901
LeftLeg  10.5208 -4.77698 -3.25495
LeftFoot  -4.59903 -0.43306 7.80084
LeftToes  -5.36635e-011 -6.70219e-011 5.24975e-011
46
root  22.1079 39.5635 4.11399 -15.669 -84.8749 8.45274
RightUpLeg  13.3991 -10.7272 -14.1848
RightLeg  -5.32056 0.427947 -2.20817
RightFoot  0.610394 -1.11499 10.6497
RightToes  3.49245e-010 0 -3.6325e-017
Spine  -1.52187 -4.69997 -7.48489
Spine1  12.9731 -6.0669 2.87478
HEad  -10.7695 -8.74722 -4.27257
LeftShoulder1  0.187411 2.10536 -5.58913
LeftArm  -24.3884 2.42956 -17.0374
LeftForeArm  1.68036 -4.06333 3.17161
LeftHand  -0.0222473 5.50752 3.08997
RightShoulder  0.148947 -2.28377 4.37603
RightArm  -16.1982 1.38296 9.23687
RightForeArm  3.45118 2.86136 -4.92845
RightHand  0.393882 2.25224 5.79846
LeftUpLeg  1.45178 8.86338 1.01607
LeftLeg  10.5201 -4.04338 -2.86096
LeftFoot  -4.80491 -0.369411 6.97546
LeftToes  -5.36635e-011 -6.70219e-011 5.24975e-011
47
root  21.9789 39.6337 3.82769 -18.3327 -85.474 11.1056
RightUpLeg  13.6366 -11.0875 -14.1799
RightLeg  -5.84882 1.38574 -1.78714
RightFoot  1.37559 -1.11222 10.039
RightToes  3.49245e-010 0 -3.6325e-017
Spine  -1.55585 -4.46885 -7.01422
Spine1  12.8078 -5.71168 2.77344
HEad  -10.9335 -8.54412 -4.53138
LeftShoulder1  0.187845 2.09348 -5.49676
LeftArm  -24.6574 2.50779 -17.552
LeftForeArm  3.14051 -4.24344 3.31831
LeftHand  -0.0386269 4.67372 2.44118
RightShoulder  0.176517 -2.03093 4.09202
RightArm  -15.7691 1.74302 10.1308
RightForeArm  3.82293 3.53009 -4.60534
RightHand  0.362288 2.04211 5.49454
LeftUpLeg  2.24652 8.73455 1.36853
LeftLeg  9.37237 -3.46481 -2.53998
LeftFoot  -4.39099 -0.35581 6.28758
LeftToes  -5.36635e-011 -6.70219e-011 5.24975e-011
48
root  21.8878 39.6668 3.5071 -19.7458 -85.9437 12.8961
RightUpLeg  13.3675 -11.1372 -13.7747
RightLeg  -6.05709 1.79735 -1.56076
RightFoot  1.15896 -1.08764 9.9802
RightToes  3.49245e-010 0 -3.6325e-017
Spine  -1.94166 -4.44058 -6.95636
Spine1  12.7297 -5.68317 3.01663
HEad  -10.9444 -8.22669 -4.84416
LeftShoulder1  0.169564 2.22046 -5.38273
LeftArm  -23.803 2.5833 -17.9436
LeftForeArm  2.89612 -3.42443 3.00645
LeftHand  -0.0354072 4.9538 2.68262
RightShoulder  0.212914 -1.74481 4.21999
RightArm  -15.0302 3.10681 10.5049
RightForeArm  4.4879 3.18792 -4.24684
RightHand  0.386299 2.53722 5.45803
LeftUpLeg  2.23588 8.7911 1.85656
LeftLeg  8.86492 -3.26015 -2.41013
LeftFoot  -4.21091 -0.316507 5.4827
LeftToes  -5.36635e-011 -6.70219e-011 5.24975e-011
49
root  21.8133 39.7097 3.22513 -22.0998 -86.3276 15.545
RightUpLeg  13.0782 -11.2841 -13.5064
RightLeg  -6.11411 2.15666 -1.28053
RightFoot  1.21865 -1.03644 9.47331
RightToes  3.49245e-010 0 -3.6325e-017
Spine  -2.00257 -4.3509 -6.72868
Spine1  12.2547 -5.5708 3.19477
HEad  -10.8298 -7.83388 -5.25075
LeftShoulder1  0.159318 2.3085 -5.50972
LeftArm  -22.8119 2.02007 -18.201
LeftForeArm  2.29355 -1.4678 2.76036
LeftHand  -0.0236748 5.65895 1.86727
RightShoulder  0.234274 -1.57972 4.29527
RightArm  -14.7435 4.04759 10.7139
RightForeArm  6.58339 3.13863 -4.09372
RightHand  0.426492 2.28837 6.26109
LeftUpLeg  2.34099 8.6655 2.10845
LeftLeg  8.2231 -2.7772 -2.11766
LeftFoot  -3.89193 -0.309656 5.11455
LeftToes  -5.36635e-011 -6.70219e-011 5.24975e-011
50
root  21.6971 39.7498 2.94055 -24.3663 -86.4323 17.9054
RightUpLeg  13.0913 -11.3292 -13.2349
RightLeg  -6.0425 2.3 -1.14006
RightFoot  1.06048 -0.957953 8.86513
RightToes  3.49245e-010 0 -3.6325e-017
Spine  -2.21357 -4.2746 -6.39204
Spine1  12.0757 -5.36719 3.00973
HEad  -10.8331 -7.79582 -5.06718
LeftShoulder1  0.187539 2.09576 -5.49425
LeftArm  -21.9995 1.52601 -18.5764
LeftForeArm  1.13576 0.530411 2.62078
LeftHand  -0.0275863 5.41453 1.59758
RightShoulder  0.220597 -1.70227 4.38712
RightArm  -14.0321 4.4793 11.0107
RightForeArm  7.65505 3.20359 -3.81956
RightHand  0.414313 1.75167 6.58781
LeftUpLeg  2.82363 8.49912 2.35168
LeftLeg  7.36028 -2.65154 -1.81778
LeftFoot  -3.54738 -0.281314 4.44435
LeftToes  -5.36635e-011 -6.70219e-011 5.24975e-011
